<svg width="14" height="14" viewBox="0 0 14 14" fill="none" xmlns="http://www.w3.org/2000/svg">
<rect width="14" height="14" rx="2.33331" fill="#1B69FF"/>
<path fill-rule="evenodd" clip-rule="evenodd" d="M11.4547 3.78526C11.586 3.91653 11.6597 4.09455 11.6597 4.28016C11.6597 4.46578 11.586 4.64379 11.4547 4.77506L6.20799 10.0218C6.13865 10.0911 6.05633 10.1462 5.96573 10.1837C5.87513 10.2212 5.77802 10.2405 5.67996 10.2405C5.58189 10.2405 5.48478 10.2212 5.39418 10.1837C5.30358 10.1462 5.22126 10.0911 5.15192 10.0218L2.54512 7.41546C2.47827 7.35089 2.42494 7.27365 2.38825 7.18825C2.35157 7.10284 2.33225 7.01099 2.33145 6.91804C2.33064 6.8251 2.34835 6.73292 2.38355 6.64689C2.41874 6.56087 2.47072 6.48271 2.53645 6.41699C2.60217 6.35126 2.68033 6.29928 2.76635 6.26409C2.85238 6.22889 2.94456 6.21118 3.0375 6.21199C3.13045 6.21279 3.2223 6.2321 3.30771 6.26879C3.39311 6.30548 3.47035 6.3588 3.53492 6.42566L5.67972 8.57046L10.4645 3.78526C10.5295 3.72021 10.6067 3.66861 10.6916 3.63341C10.7766 3.5982 10.8676 3.58008 10.9596 3.58008C11.0516 3.58008 11.1426 3.5982 11.2276 3.63341C11.3125 3.66861 11.3897 3.72021 11.4547 3.78526Z" fill="white"/>
</svg>
