<svg width="102" height="102" viewBox="0 0 102 102" fill="none" xmlns="http://www.w3.org/2000/svg">
<path d="M101.795 50.8306C101.795 109.407 108.096 101.661 50.8973 101.661C22.7875 101.661 0 78.9035 0 50.8306C0 22.7576 22.7875 0 50.8973 0C79.0071 0 101.795 22.7576 101.795 50.8306Z" fill="#F6F5F5"/>
<path d="M25.6767 40.432H79.3755V47.9136H25.6767V40.432ZM56.6289 43.4488C60.249 57.2657 67.9117 68.7295 80.7029 73.7977C78.8928 75.4268 76.4794 78.5642 75.2727 80.676C61.4558 74.22 53.9138 61.7305 49.3283 45.1382L56.6289 43.4488ZM48.3026 24.2017H56.2669C55.9652 42.6041 55.8445 68.1865 29.9605 80.676C28.8141 78.6849 26.5817 76.0905 24.4699 74.5217C49.2076 63.4803 48.1216 40.5527 48.3026 24.2017Z" fill="white"/>
</svg>
