<svg width="12" height="12" viewBox="0 0 12 12" fill="none" xmlns="http://www.w3.org/2000/svg">
<path d="M5.28828 6.71137L8.01254 3.98716M10.7986 2.32542L8.49937 9.79873C8.29306 10.4688 8.19018 10.8039 8.01197 10.9146C7.93608 10.962 7.84997 10.9906 7.7608 10.9981C7.67163 11.0055 7.58197 10.9915 7.49928 10.9573C7.30589 10.8769 7.14849 10.5638 6.8348 9.93646L5.37879 7.02336C5.34902 6.95587 5.31268 6.89148 5.27029 6.83111C5.24105 6.79301 5.20704 6.75881 5.1691 6.72935C5.11053 6.68868 5.04823 6.65367 4.98303 6.62479L2.0637 5.16431C1.43689 4.85063 1.1232 4.69379 1.04281 4.50041C1.00852 4.41764 0.994506 4.32788 1.00194 4.2386C1.00937 4.14932 1.03803 4.06311 1.08553 3.98716C1.19628 3.80952 1.53133 3.70608 2.20143 3.49977L9.67542 1.20055C10.2022 1.03809 10.4653 0.957136 10.6435 1.02291C10.72 1.05102 10.7895 1.09544 10.8472 1.15311C10.9049 1.21077 10.9493 1.28028 10.9774 1.35683C11.0426 1.53447 10.9617 1.79756 10.7998 2.32374L10.7986 2.32542Z" stroke="white" stroke-width="1.10055" stroke-linecap="round" stroke-linejoin="round"/>
</svg>
