<svg width="21" height="17" viewBox="0 0 21 17" fill="none" xmlns="http://www.w3.org/2000/svg">
<path fill-rule="evenodd" clip-rule="evenodd" d="M3.87272 0.273757C3.68314 0.0935841 3.43239 -0.00450346 3.17331 0.000158912C2.91422 0.00482129 2.66702 0.111869 2.48379 0.298751C2.30056 0.485633 2.19561 0.737757 2.19104 1.00201C2.18646 1.26626 2.28263 1.522 2.45929 1.71536L3.56603 2.84416C2.24349 3.94816 1.1931 5.35299 0.499149 6.94592L0.152458 7.74152C0.0519357 7.97254 0 8.22248 0 8.47524C0 8.72799 0.0519357 8.97793 0.152458 9.20896L0.499149 10.0046C1.11379 11.4138 2.00803 12.6779 3.1255 13.7172C4.24298 14.7564 5.55943 15.5482 6.99188 16.0427C8.42433 16.5372 9.94169 16.7236 11.4483 16.5903C12.9549 16.4569 14.4181 16.0066 15.7456 15.2678L17.127 16.6754C17.2185 16.7756 17.3289 16.8559 17.4516 16.9117C17.5743 16.9674 17.7067 16.9974 17.841 16.9998C17.9753 17.0023 18.1087 16.9771 18.2332 16.9258C18.3577 16.8745 18.4708 16.7981 18.5658 16.7012C18.6608 16.6044 18.7356 16.489 18.7859 16.362C18.8362 16.235 18.8609 16.099 18.8586 15.962C18.8562 15.8251 18.8268 15.69 18.7721 15.5649C18.7175 15.4397 18.6387 15.3271 18.5404 15.2338L3.87272 0.273757ZM14.2575 13.7486L12.532 11.9902C11.7679 12.4507 10.8753 12.639 9.9948 12.5254C9.11427 12.4118 8.29579 12.0027 7.6682 11.3626C7.04061 10.7225 6.63956 9.88775 6.52817 8.98967C6.41679 8.0916 6.6014 7.18124 7.05294 6.40192L4.98746 4.29528C3.83406 5.21537 2.92008 6.41051 2.32594 7.77552L2.02059 8.47456L2.32728 9.17496C2.80932 10.2801 3.50195 11.2765 4.36492 12.1061C5.22789 12.9358 6.24396 13.5822 7.35406 14.0078C8.46416 14.4334 9.64614 14.6297 10.8313 14.5852C12.0164 14.5407 13.181 14.2563 14.2575 13.7486ZM8.56638 7.94552C8.47562 8.29174 8.47576 8.65623 8.5668 9.00238C8.65783 9.34853 8.83656 9.66416 9.08502 9.91758C9.33349 10.171 9.64296 10.3533 9.98234 10.4461C10.3217 10.539 10.6791 10.5391 11.0186 10.4466L8.56638 7.94552ZM10.7772 4.40408L14.4895 8.19032C14.4223 7.20874 14.0097 6.28496 13.3275 5.58919C12.6453 4.89342 11.7396 4.47254 10.7772 4.40408ZM18.6711 9.17496C18.3535 9.90473 17.9433 10.5888 17.451 11.2095L18.8711 12.6593C19.534 11.857 20.0826 10.9632 20.5006 10.0046L20.8472 9.20896C20.948 8.97775 21 8.72756 21 8.47456C21 8.22155 20.948 7.97137 20.8472 7.74016L20.5006 6.94592C19.4115 4.44916 17.4625 2.44642 15.0228 1.31703C12.583 0.18763 9.82186 0.00999183 7.26229 0.817757L8.91307 2.50416C10.8839 2.14223 12.9167 2.46508 14.6863 3.42102C16.456 4.37696 17.86 5.91073 18.6738 7.77688L18.9778 8.47592L18.6711 9.17496Z" fill="#98A4AF"/>
</svg>
