<svg width="108" height="108" viewBox="0 0 108 108" fill="none" xmlns="http://www.w3.org/2000/svg">
<path d="M107.782 53.8206C107.782 115.842 114.455 107.641 53.8912 107.641C24.1279 107.641 0 83.5449 0 53.8206C0 24.0963 24.1279 0 53.8912 0C83.6546 0 107.782 24.0963 107.782 53.8206Z" fill="#1B69FF"/>
<path d="M27.2227 43.0318H84.6451V51.0322H27.2227V43.0318ZM60.3212 46.2578C64.1924 61.0328 72.3864 73.2915 86.0645 78.7111C84.1289 80.4531 81.5481 83.8081 80.2577 86.0663C65.4828 79.1627 57.4178 65.8072 52.5143 48.0643L60.3212 46.2578ZM51.4175 25.6761H59.9341C59.6115 45.3545 59.4825 72.7108 31.8036 86.0663C30.5777 83.9372 28.1905 81.1628 25.9323 79.4853C52.3853 67.6783 51.224 43.1609 51.4175 25.6761Z" fill="white"/>
</svg>
