<svg width="21" height="17" viewBox="0 0 21 17" fill="none" xmlns="http://www.w3.org/2000/svg">
<path fill-rule="evenodd" clip-rule="evenodd" d="M2.32594 9.22993L2.02059 8.5L2.32594 7.77007C3.0286 6.08936 4.17478 4.66135 5.62559 3.65911C7.07641 2.65688 8.76956 2.12343 10.4999 2.12343C12.2301 2.12343 13.9233 2.65688 15.3741 3.65911C16.8249 4.66135 17.9711 6.08936 18.6738 7.77007L18.9778 8.5L18.6724 9.22993C17.9696 10.9102 16.8234 12.3378 15.3728 13.3398C13.9221 14.3417 12.2292 14.875 10.4992 14.875C8.76917 14.875 7.07628 14.3417 5.62562 13.3398C4.17495 12.3378 3.02877 10.9102 2.32594 9.22993ZM0.499149 6.90691L0.152458 7.73605C0.0519357 7.97682 0 8.2373 0 8.50071C0 8.76412 0.0519357 9.0246 0.152458 9.26536L0.499149 10.0931C1.35919 12.149 2.76167 13.8957 4.53668 15.1216C6.31169 16.3475 8.38306 17 10.4999 17C12.6166 17 14.688 16.3475 16.463 15.1216C18.238 13.8957 19.6405 12.149 20.5006 10.0931L20.8472 9.26536C20.948 9.02441 21 8.76367 21 8.5C21 8.23633 20.948 7.97559 20.8472 7.73464L20.5006 6.90691C19.6405 4.85098 18.238 3.10427 16.463 1.87837C14.688 0.652472 12.6166 0 10.4999 0C8.38306 0 6.31169 0.652472 4.53668 1.87837C2.76167 3.10427 1.35919 4.85098 0.499149 6.90691ZM12.5 8.5C12.5 9.06385 12.2893 9.60461 11.9142 10.0033C11.5391 10.402 11.0303 10.626 10.4999 10.626C9.96938 10.626 9.46064 10.402 9.08554 10.0033C8.71044 9.60461 8.49971 9.06385 8.49971 8.5C8.49971 7.93615 8.71044 7.39539 9.08554 6.99668C9.46064 6.59798 9.96938 6.37399 10.4999 6.37399C11.0303 6.37399 11.5391 6.59798 11.9142 6.99668C12.2893 7.39539 12.5 7.93615 12.5 8.5ZM14.5001 8.5C14.5001 9.62771 14.0787 10.7092 13.3285 11.5066C12.5783 12.304 11.5608 12.752 10.4999 12.752C9.43891 12.752 8.42142 12.304 7.67123 11.5066C6.92103 10.7092 6.49957 9.62771 6.49957 8.5C6.49957 7.37229 6.92103 6.29077 7.67123 5.49337C8.42142 4.69596 9.43891 4.24798 10.4999 4.24798C11.5608 4.24798 12.5783 4.69596 13.3285 5.49337C14.0787 6.29077 14.5001 7.37229 14.5001 8.5Z" fill="#98A4AF"/>
</svg>
