<svg width="16" height="18" viewBox="0 0 16 18" fill="none" xmlns="http://www.w3.org/2000/svg">
<path d="M14.3835 1.70191C14.5789 1.92503 14.734 2.18999 14.8398 2.48166C14.9455 2.77332 15 3.08596 15 3.4017C15 3.71743 14.9455 4.03007 14.8398 4.32173C14.734 4.6134 14.5789 4.87836 14.3835 5.10148L4.96548 15.8668L1 17L1.99137 12.5307L11.4134 1.70644C11.7847 1.27987 12.2828 1.02852 12.8088 1.00228C13.3348 0.976042 13.8502 1.17683 14.2526 1.56479L14.3835 1.70191ZM6.94822 17H14.8792H6.94822Z" fill="#98A4AF"/>
<path d="M6.94822 17H14.8792M14.3835 1.70191C14.5789 1.92503 14.734 2.18999 14.8398 2.48166C14.9455 2.77332 15 3.08596 15 3.4017C15 3.71743 14.9455 4.03007 14.8398 4.32173C14.734 4.6134 14.5789 4.87836 14.3835 5.10148L4.96548 15.8668L1 17L1.99137 12.5307L11.4134 1.70644C11.7847 1.27987 12.2828 1.02852 12.8088 1.00228C13.3348 0.976042 13.8502 1.17683 14.2526 1.56479L14.3835 1.70191Z" stroke="#98A4AF" stroke-width="0.899997" stroke-linecap="round" stroke-linejoin="round"/>
</svg>
