<svg width="100" height="100" viewBox="0 0 100 100" fill="none" xmlns="http://www.w3.org/2000/svg">
<circle cx="50" cy="50" r="50" fill="#E9E9E9"/>
<path d="M80.181 49.8987C80.181 84.7033 83.9253 80.101 49.939 80.101C33.2368 80.101 19.697 66.579 19.697 49.8987C19.697 33.2184 33.2368 19.6963 49.939 19.6963C66.6412 19.6963 80.181 33.2184 80.181 49.8987Z" fill="white"/>
<path d="M34.9936 43.8418H67.5383V48.3762H34.9936V43.8418ZM53.7525 45.6702C55.9465 54.0441 60.5906 60.9918 68.3428 64.0635C67.2458 65.0508 65.7831 66.9523 65.0517 68.2321C56.6779 64.3194 52.107 56.75 49.3279 46.6941L53.7525 45.6702ZM48.7062 34.0053H53.5331C53.3503 45.1583 53.2771 60.6627 37.5898 68.2321C36.8951 67.0254 35.5421 65.453 34.2622 64.5023C49.2547 57.8105 48.5965 43.915 48.7062 34.0053Z" fill="#E9E9E9"/>
</svg>
