<svg width="24" height="24" viewBox="0 0 24 24" fill="none" xmlns="http://www.w3.org/2000/svg">
<path d="M11.7825 12.5745C14.7688 12.5745 17.0977 9.98673 17.0977 6.91225C17.0977 3.83777 14.7688 1.25 11.7825 1.25C8.79619 1.25 6.46729 3.83777 6.46729 6.91225C6.46729 9.98673 8.79619 12.5745 11.7825 12.5745Z" stroke="#1F262C" stroke-width="1.5"/>
<path d="M11.5652 22.7495C12.0072 22.7495 12.4466 22.7503 12.8809 22.751C15.1418 22.7547 17.2653 22.7582 18.8996 22.6579C19.8678 22.5984 20.721 22.5 21.3485 22.3242C21.6583 22.2374 21.9739 22.1158 22.2267 21.9272C22.4949 21.727 22.75 21.4014 22.75 20.947C22.75 20.5823 22.5763 20.2348 22.4148 19.9755C22.2355 19.6877 21.9876 19.3789 21.6923 19.0652C21.0998 18.4358 20.2663 17.7335 19.265 17.0768C17.2699 15.7683 14.519 14.583 11.5652 14.583C8.60188 14.583 6.05782 15.7753 4.26553 17.101C3.36785 17.765 2.64189 18.4746 2.13257 19.1104C1.87845 19.4276 1.66899 19.738 1.51926 20.0256C1.38054 20.292 1.25 20.619 1.25 20.947C1.25 21.3431 1.43425 21.6618 1.68512 21.8856C1.91559 22.0913 2.20472 22.2226 2.48338 22.3144C3.04255 22.4985 3.79915 22.5979 4.65972 22.6575C6.11191 22.7581 8.05192 22.7548 10.2525 22.751C10.6808 22.7503 11.1189 22.7495 11.5652 22.7495Z" stroke="#1F262C" stroke-width="1.5"/>
</svg>
